<svg width="24" height="27" viewBox="0 0 24 27" fill="none" xmlns="http://www.w3.org/2000/svg">
  <style>
    .background { fill: #ffffff; }
    .foreground { fill: #1F2937; }
    @media (prefers-color-scheme: dark) {
      .background { fill: #1F2937; }
      .foreground { fill: #D1D5DB; }
    }
  </style>
  <!-- Flag background -->
  <rect class="background" x="2.4" y="5.7" width="19.6" height="13" />
  <!-- Flagpole -->
  <path class="foreground" d="M1.33561 5.99482C1.67255 5.84761 1.90802 5.51142 1.90802 5.12023C1.90802 4.59336 1.4809 4.16626 0.954016 4.16626C0.427124 4.16626 0 4.59336 0 5.12023C0 5.51142 0.235467 5.8476 0.572406 5.99481V22.9488C0.572406 23.0834 0.681527 23.1925 0.816176 23.1925H1.09186C1.22651 23.1925 1.33561 23.0834 1.33561 22.9488V5.99482Z"/>
  <!-- Flag outline -->
  <path class="foreground" d="M2.4159 6.02258V18.4174C2.4159 18.5693 2.5533 18.6842 2.70303 18.6585C4.22033 18.3979 5.83001 18.2276 8.7556 18.2276C10.4461 18.2276 12.0843 18.4059 13.54 18.5643L13.5421 18.5645C14.7061 18.6912 15.7532 18.8052 16.6169 18.8052C18.4318 18.8052 20.7623 18.7213 21.7519 18.5536C21.864 18.5346 21.9423 18.4357 21.9423 18.3219V5.89173C21.9423 5.74495 21.8136 5.63152 21.6678 5.64877C20.2298 5.81891 18.7146 5.90398 16.6169 5.90398C15.6301 5.90398 14.6068 5.791 13.4653 5.66499C12.0256 5.50603 10.3978 5.32631 8.41751 5.32631C6.1278 5.32631 4.36154 5.55563 2.92743 5.74184L2.62876 5.78051C2.50697 5.79619 2.4159 5.89978 2.4159 6.02258Z"/>
  <!-- Plus symbol -->
  <path class="background" d="M11.5 8.5h2v3h3v2h-3v3h-2v-3h-3v-2h3v-3z"/>
</svg> 